<svg xmlns="http://www.w3.org/2000/svg" xmlns:xlink="http://www.w3.org/1999/xlink" width="184.805" height="52.456" viewBox="0 0 184.805 52.456"><defs><style>.a{stroke:#000;}.b,.c,.j,.k{fill:#fff;}.b{stroke:#fff;stroke-miterlimit:10;stroke-width:0.2px;}.d{fill:url(#a);}.e{fill:url(#b);}.f{fill:url(#c);}.g{fill:url(#d);}.h{opacity:0.2;}.i{opacity:0.12;}.j{opacity:0.25;}.k{opacity:0.23;}</style><linearGradient id="a" x1="0.908" y1="1.032" x2="-0.383" y2="0.36" gradientUnits="objectBoundingBox"><stop offset="0" stop-color="#00a0ff"/><stop offset="0.007" stop-color="#00a1ff"/><stop offset="0.26" stop-color="#00beff"/><stop offset="0.512" stop-color="#00d2ff"/><stop offset="0.76" stop-color="#00dfff"/><stop offset="1" stop-color="#00e3ff"/></linearGradient><linearGradient id="b" x1="1.077" y1="0.729" x2="-1.307" y2="0.729" gradientUnits="objectBoundingBox"><stop offset="0" stop-color="#ffe000"/><stop offset="0.409" stop-color="#ffbd00"/><stop offset="0.775" stop-color="orange"/><stop offset="1" stop-color="#ff9c00"/></linearGradient><linearGradient id="c" x1="0.864" y1="-0.023" x2="-0.499" y2="-1.789" gradientUnits="objectBoundingBox"><stop offset="0" stop-color="#ff3a44"/><stop offset="1" stop-color="#c31162"/></linearGradient><linearGradient id="d" x1="-0.186" y1="2.701" x2="0.423" y2="1.909" gradientUnits="objectBoundingBox"><stop offset="0" stop-color="#32a071"/><stop offset="0.069" stop-color="#2da771"/><stop offset="0.476" stop-color="#15cf74"/><stop offset="0.801" stop-color="#06e775"/><stop offset="1" stop-color="#00f076"/></linearGradient></defs><g transform="translate(0.5)"><path class="a" d="M176.628,0H6.793A6.592,6.592,0,0,0,0,6.331V44.314a6.51,6.51,0,0,0,6.793,6.331H176.628a6.51,6.51,0,0,0,6.793-6.331V6.331A6.592,6.592,0,0,0,176.628,0Z" transform="translate(0 0.892)"/><g transform="translate(-1362.826 -5588.108)"><g transform="translate(0 0.5)"><path class="b" d="M49.552,11.384A3.7,3.7,0,0,1,48.6,14.1a4.212,4.212,0,0,1-7.2-2.989A4.175,4.175,0,0,1,45.612,6.9a3.618,3.618,0,0,1,1.63.408,2.959,2.959,0,0,1,1.223.951l-.679.679a2.534,2.534,0,0,0-2.174-.951,2.7,2.7,0,0,0-2.174.951,2.8,2.8,0,0,0-.951,2.31,2.8,2.8,0,0,0,.951,2.31,3.5,3.5,0,0,0,2.174.951,2.98,2.98,0,0,0,2.31-.951,2.25,2.25,0,0,0,.679-1.63H45.612V10.84h3.94v.543Zm6.25-3.4H52.134v2.581h3.4v.951h-3.4V14.1H55.8v1.087H51.047V7.036H55.8Zm4.484,7.2H59.2v-7.2h-2.31V7.036H62.6v.951h-2.31Zm6.25,0V7.036h1.087v8.152Zm5.706,0H71.155v-7.2h-2.31V7.036h5.571v.951h-2.31v7.2ZM85.149,14.1a4.212,4.212,0,0,1-7.2-2.989,4.212,4.212,0,1,1,8.424,0A4,4,0,0,1,85.149,14.1Zm-5.163-.679a3.206,3.206,0,0,0,2.174.951,2.7,2.7,0,0,0,2.174-.951,3.278,3.278,0,0,0,.951-2.31,2.8,2.8,0,0,0-.951-2.31,3.206,3.206,0,0,0-2.174-.951,2.7,2.7,0,0,0-2.174.951,3.278,3.278,0,0,0-.951,2.31A2.8,2.8,0,0,0,79.986,13.422Zm7.88,1.766V7.036H89.09l3.94,6.386V7.036h1.087v8.152H93.03L88.818,8.53v6.658h-.951Z" transform="translate(1377.088 5587.6)"/><path class="c" d="M77.784,23.486a5.716,5.716,0,0,0-5.842,5.842,5.8,5.8,0,0,0,5.842,5.842,5.716,5.716,0,0,0,5.842-5.842A5.637,5.637,0,0,0,77.784,23.486Zm0,9.239a3.373,3.373,0,0,1-3.261-3.533,3.373,3.373,0,0,1,3.261-3.533,3.291,3.291,0,0,1,3.261,3.533A3.373,3.373,0,0,1,77.784,32.725ZM65.149,23.486a5.716,5.716,0,0,0-5.842,5.842,5.8,5.8,0,0,0,5.842,5.842,5.716,5.716,0,0,0,5.842-5.842A5.637,5.637,0,0,0,65.149,23.486Zm0,9.239a3.373,3.373,0,0,1-3.261-3.533,3.373,3.373,0,0,1,3.261-3.533,3.291,3.291,0,0,1,3.261,3.533A3.373,3.373,0,0,1,65.149,32.725ZM50.067,25.252V27.7H55.91a5.137,5.137,0,0,1-1.359,3.125,6.014,6.014,0,0,1-4.484,1.766,6.326,6.326,0,0,1-6.386-6.522,6.409,6.409,0,0,1,6.386-6.522,6.737,6.737,0,0,1,4.484,1.766l1.766-1.766A8.706,8.706,0,0,0,50.2,17.1a9.165,9.165,0,0,0-9.1,8.967,9.165,9.165,0,0,0,9.1,8.967,7.819,7.819,0,0,0,6.25-2.581,8.179,8.179,0,0,0,2.174-5.706,5.094,5.094,0,0,0-.136-1.495H50.067Zm61.684,1.9a5.279,5.279,0,0,0-4.891-3.668c-2.989,0-5.435,2.31-5.435,5.842a5.686,5.686,0,0,0,5.706,5.842,5.573,5.573,0,0,0,4.755-2.581l-1.9-1.359a3.312,3.312,0,0,1-2.853,1.63,2.948,2.948,0,0,1-2.853-1.766l7.744-3.261-.272-.679Zm-7.88,1.9a3.3,3.3,0,0,1,2.989-3.4,2.4,2.4,0,0,1,2.174,1.223Zm-6.386,5.571h2.581V17.643H97.485Zm-4.076-9.918a4.474,4.474,0,0,0-3.125-1.359,5.838,5.838,0,0,0-5.571,5.842A5.626,5.626,0,0,0,90.284,34.9a3.9,3.9,0,0,0,2.989-1.359h.136v.815c0,2.174-1.223,3.4-3.125,3.4a3.019,3.019,0,0,1-2.853-2.038l-2.174.951a5.605,5.605,0,0,0,5.163,3.4c2.989,0,5.435-1.766,5.435-5.978V23.758H93.409v.951ZM90.42,32.725a3.373,3.373,0,0,1-3.261-3.533A3.373,3.373,0,0,1,90.42,25.66a3.269,3.269,0,0,1,3.125,3.533A3.269,3.269,0,0,1,90.42,32.725Zm33.152-15.081h-6.114V34.627h2.581V28.241h3.533a5.305,5.305,0,1,0,0-10.6Zm.136,8.152h-3.668V19.953h3.668a2.984,2.984,0,0,1,2.989,2.853A3.109,3.109,0,0,1,123.708,25.8Zm15.625-2.446a4.567,4.567,0,0,0-4.484,2.581l2.31.951a2.4,2.4,0,0,1,2.31-1.223,2.553,2.553,0,0,1,2.717,2.174v.136a5.389,5.389,0,0,0-2.581-.679c-2.446,0-4.891,1.359-4.891,3.8a3.98,3.98,0,0,0,4.212,3.8,3.823,3.823,0,0,0,3.261-1.63h.136v1.359h2.446V28.105A5.142,5.142,0,0,0,139.332,23.35Zm-.272,9.375c-.815,0-2.038-.408-2.038-1.495,0-1.359,1.495-1.766,2.717-1.766a5.254,5.254,0,0,1,2.31.543A3.164,3.164,0,0,1,139.061,32.725Zm14.266-8.967-2.853,7.337h-.136l-2.989-7.337h-2.717l4.484,10.326-2.581,5.706h2.581l6.929-16.032ZM130.5,34.627h2.581V17.643H130.5Z" transform="translate(1376.981 5592.9)"/></g><g transform="translate(1375.826 5597)"><path class="d" d="M10.543,7.5A2.656,2.656,0,0,0,10,9.4V39.429a2.688,2.688,0,0,0,.679,1.9l.136.136L27.663,24.619v-.272Z" transform="translate(-10 -7.021)"/><path class="e" d="M28.471,27.349,22.9,21.778v-.408L28.471,15.8l.136.136,6.658,3.8c1.9,1.087,1.9,2.853,0,3.94Z" transform="translate(-5.373 -4.044)"/><path class="f" d="M33.09,25.706,27.383,20,10.4,36.983c.679.679,1.63.679,2.853.136L33.09,25.706" transform="translate(-9.857 -2.537)"/><path class="g" d="M33.09,18.895,13.253,7.618a2.2,2.2,0,0,0-2.853.136L27.383,24.6l5.706-5.706Z" transform="translate(-9.857 -7.139)"/><path class="h" d="M32.954,24.1l-19.7,11.141a2.222,2.222,0,0,1-2.717,0l-.136.136.136.136a2.222,2.222,0,0,0,2.717,0Z" transform="translate(-9.857 -1.067)"/><path class="i" d="M10.543,36.712A2.656,2.656,0,0,1,10,34.81v.136a2.688,2.688,0,0,0,.679,1.9v-.136h-.136ZM39.891,21.766l-6.793,3.8.136.136,6.658-3.8A2.259,2.259,0,0,0,41.25,20C41.25,20.679,40.706,21.223,39.891,21.766Z" transform="translate(-10 -2.537)"/><path class="j" d="M13.4,7.762,39.891,22.844c.815.543,1.359,1.087,1.359,1.766a2.259,2.259,0,0,0-1.359-1.9L13.4,7.627c-1.9-1.087-3.4-.272-3.4,1.9v.136C10,7.627,11.495,6.675,13.4,7.762Z" transform="translate(-10 -7.147)"/></g></g><path class="k" d="M91.028,0H3.468l49.3,52.456H91.028c1.961,0,3.5-2.885,3.5-6.557V6.557C94.531,3.016,92.99,0,91.028,0Z" transform="translate(89.774 0)"/></g></svg>