<svg xmlns="http://www.w3.org/2000/svg" width="184.374" height="53.03" viewBox="0 0 184.374 53.03"><defs><style>.a{stroke:#000;}.b,.c{fill:#fff;}.c{opacity:0.23;}</style></defs><g transform="translate(0.5)"><path class="a" d="M176.947,50.638H6.427A6.218,6.218,0,0,1,0,44.65V5.988A6.218,6.218,0,0,1,6.427,0H176.947a6.218,6.218,0,0,1,6.428,5.988V44.65a6.218,6.218,0,0,1-6.428,5.988Z" transform="translate(0 1.892)"/><g transform="translate(-1568.973 -5586.108)"><path class="b" d="M260.151,133.658a7.85,7.85,0,0,1,3.757-6.6,8.047,8.047,0,0,0-6.369-3.433c-2.671-.293-5.253,1.614-6.633,1.614s-3.493-1.584-5.752-1.526a8.524,8.524,0,0,0-7.132,4.343c-3.082,5.34-.792,13.174,2.172,17.458,1.467,2.113,3.2,4.46,5.459,4.372,2.2-.088,3.023-1.408,5.694-1.408,2.641,0,3.4,1.408,5.723,1.35,2.377-.029,3.874-2.113,5.283-4.255a17.293,17.293,0,0,0,2.407-4.929A7.634,7.634,0,0,1,260.151,133.658Zm-4.344-12.881a7.748,7.748,0,0,0,1.761-5.546,7.979,7.979,0,0,0-5.107,2.641,7.369,7.369,0,0,0-1.82,5.34A6.506,6.506,0,0,0,255.807,120.777Z" transform="translate(1349.417 5480.769)"/><path class="b" d="M801.686,155.152H798.6l-1.7-5.311h-5.87l-1.614,5.311h-2.994l5.811-18.074h3.61Zm-5.283-7.541-1.526-4.724c-.176-.469-.47-1.614-.91-3.4h-.059c-.176.763-.47,1.907-.851,3.4l-1.5,4.724Zm20.222.851a7.372,7.372,0,0,1-1.82,5.252,5.306,5.306,0,0,1-4.021,1.731,4.038,4.038,0,0,1-3.727-1.849v6.837h-2.876V146.379c0-1.379-.029-2.817-.117-4.284h2.553l.176,2.054h.059a5.148,5.148,0,0,1,8.247-.528A7.413,7.413,0,0,1,816.625,148.462Zm-2.935.117a5.5,5.5,0,0,0-.851-3.14,2.976,2.976,0,0,0-2.524-1.291,3.031,3.031,0,0,0-1.937.7,3.2,3.2,0,0,0-1.145,1.878,4.6,4.6,0,0,0-.147.88v2.171a3.476,3.476,0,0,0,.881,2.406,2.931,2.931,0,0,0,2.26.968,2.967,2.967,0,0,0,2.553-1.262A5.418,5.418,0,0,0,813.69,148.58Zm17.962-.117a7.371,7.371,0,0,1-1.82,5.252,5.306,5.306,0,0,1-4.021,1.731,4.037,4.037,0,0,1-3.727-1.849v6.837h-2.906V146.379c0-1.379-.029-2.817-.117-4.284h2.553l.176,2.054h.059a5.148,5.148,0,0,1,8.247-.528A7.428,7.428,0,0,1,831.652,148.462Zm-2.964.117a5.5,5.5,0,0,0-.851-3.14,2.976,2.976,0,0,0-2.524-1.291,3.032,3.032,0,0,0-1.937.7,3.2,3.2,0,0,0-1.145,1.878,3.9,3.9,0,0,0-.147.88v2.171a3.476,3.476,0,0,0,.881,2.406,2.931,2.931,0,0,0,2.26.968,2.966,2.966,0,0,0,2.553-1.262A5.416,5.416,0,0,0,828.687,148.58Zm19.723,1.5a4.8,4.8,0,0,1-1.614,3.756,7.113,7.113,0,0,1-4.931,1.584,8.9,8.9,0,0,1-4.7-1.115l.675-2.406a7.958,7.958,0,0,0,4.2,1.115,3.948,3.948,0,0,0,2.553-.734,2.381,2.381,0,0,0,.91-1.966,2.524,2.524,0,0,0-.763-1.849,7.067,7.067,0,0,0-2.495-1.408q-4.755-1.76-4.755-5.193a4.522,4.522,0,0,1,1.673-3.638,6.688,6.688,0,0,1,4.432-1.408,8.978,8.978,0,0,1,4.109.851l-.734,2.347a7.107,7.107,0,0,0-3.463-.822,3.585,3.585,0,0,0-2.407.763,2.2,2.2,0,0,0-.734,1.643,2.155,2.155,0,0,0,.822,1.76,9.373,9.373,0,0,0,2.641,1.408,8.679,8.679,0,0,1,3.434,2.2A4.252,4.252,0,0,1,848.41,150.076Zm9.6-5.78h-3.2v6.338c0,1.614.558,2.406,1.7,2.406a4.115,4.115,0,0,0,1.291-.147l.088,2.2a6.714,6.714,0,0,1-2.26.323,3.429,3.429,0,0,1-2.671-1.056,5.155,5.155,0,0,1-.969-3.521v-6.572h-1.908V142.1h1.908v-2.377l2.847-.851v3.257h3.2Zm14.381,4.225a7.163,7.163,0,0,1-1.732,4.929,6.158,6.158,0,0,1-4.784,2,5.891,5.891,0,0,1-4.578-1.907,6.894,6.894,0,0,1-1.7-4.812,7.07,7.07,0,0,1,1.761-4.959,6.088,6.088,0,0,1,4.725-1.937,5.955,5.955,0,0,1,4.608,1.907A6.771,6.771,0,0,1,872.388,148.521Zm-2.994.059a5.992,5.992,0,0,0-.763-3.081,2.888,2.888,0,0,0-2.612-1.555,2.945,2.945,0,0,0-2.671,1.555,5.862,5.862,0,0,0-.763,3.14,5.993,5.993,0,0,0,.763,3.081,2.983,2.983,0,0,0,5.254-.029A5.9,5.9,0,0,0,869.395,148.58Zm12.415-3.932a4.778,4.778,0,0,0-.91-.088,2.682,2.682,0,0,0-2.348,1.144,4.405,4.405,0,0,0-.734,2.582v6.837h-2.906V146.2c0-1.379-.029-2.729-.088-4.108h2.524l.117,2.494h.088a4.363,4.363,0,0,1,1.438-2.054,3.633,3.633,0,0,1,2.084-.7,5.716,5.716,0,0,1,.734.059Zm12.972,3.374a6.7,6.7,0,0,1-.117,1.32h-8.687a3.734,3.734,0,0,0,1.262,2.963,4.252,4.252,0,0,0,2.847.91,9.646,9.646,0,0,0,3.522-.616l.44,2a11.083,11.083,0,0,1-4.373.792,6.241,6.241,0,0,1-4.755-1.79,6.644,6.644,0,0,1-1.732-4.783,7.36,7.36,0,0,1,1.614-4.9,5.482,5.482,0,0,1,4.549-2.083,4.835,4.835,0,0,1,4.256,2.083A6.862,6.862,0,0,1,894.782,148.022Zm-2.759-.763a3.943,3.943,0,0,0-.557-2.23,2.49,2.49,0,0,0-2.319-1.2A2.762,2.762,0,0,0,886.828,145a4.4,4.4,0,0,0-.851,2.259ZM790.21,130.681a14.547,14.547,0,0,1-2.084-.117V121.82a17.416,17.416,0,0,1,2.465-.176c3.316,0,4.843,1.643,4.843,4.313C795.435,129.009,793.615,130.681,790.21,130.681Zm.47-7.922a6.486,6.486,0,0,0-1.145.088v6.631a7.779,7.779,0,0,0,.969.029c2.172,0,3.4-1.232,3.4-3.55A2.889,2.889,0,0,0,790.68,122.759Zm9.509,7.981a3.046,3.046,0,0,1-3.082-3.286,3.114,3.114,0,0,1,3.2-3.374,3.015,3.015,0,0,1,3.082,3.286A3.146,3.146,0,0,1,800.189,130.74Zm.059-5.634c-1.027,0-1.7.968-1.7,2.318,0,1.32.675,2.289,1.673,2.289s1.673-1.027,1.673-2.318C801.921,126.075,801.246,125.106,800.248,125.106Zm13.824-.91-2,6.4h-1.321l-.822-2.787c-.205-.675-.382-1.379-.528-2.083h-.029a12.755,12.755,0,0,1-.528,2.083l-.88,2.787h-1.321l-1.878-6.4h1.467l.734,3.052c.176.734.323,1.408.44,2.054h.029c.117-.528.264-1.2.528-2.054l.91-3.052h1.174l.88,2.993q.308,1.1.528,2.113h.029a17.032,17.032,0,0,1,.44-2.113l.792-2.993Zm7.367,6.4h-1.409v-3.668c0-1.144-.44-1.7-1.291-1.7a1.486,1.486,0,0,0-1.438,1.555v3.814h-1.438v-4.577c0-.557,0-1.174-.059-1.819h1.262l.059,1h.029a2.331,2.331,0,0,1,2.025-1.115c1.35,0,2.231,1.027,2.231,2.7Zm3.933,0h-1.438v-9.36h1.438Zm5.195.147a3.046,3.046,0,0,1-3.082-3.286,3.114,3.114,0,0,1,3.2-3.374,3.015,3.015,0,0,1,3.082,3.286A3.146,3.146,0,0,1,830.566,130.74Zm.059-5.634c-1.027,0-1.7.968-1.7,2.318,0,1.32.675,2.289,1.673,2.289s1.673-1.027,1.673-2.318C832.268,126.075,831.622,125.106,830.624,125.106Zm8.746,5.487-.117-.734h-.029a2.2,2.2,0,0,1-1.878.88,1.859,1.859,0,0,1-1.966-1.878c0-1.584,1.379-2.406,3.757-2.406v-.117c0-.851-.44-1.262-1.321-1.262a2.936,2.936,0,0,0-1.673.469l-.293-.939a3.957,3.957,0,0,1,2.2-.557c1.673,0,2.524.88,2.524,2.641v2.347a10.394,10.394,0,0,0,.088,1.526Zm-.205-3.2c-1.585,0-2.377.381-2.377,1.291a.9.9,0,0,0,.969,1,1.368,1.368,0,0,0,1.409-1.291Zm8.306,3.2-.059-1.027h-.029a2.162,2.162,0,0,1-2.055,1.174c-1.556,0-2.7-1.35-2.7-3.257,0-2,1.174-3.4,2.817-3.4a1.959,1.959,0,0,1,1.82.88h.029v-3.726h1.438v7.629c0,.616.029,1.2.059,1.731Zm-.205-3.756a1.548,1.548,0,0,0-1.5-1.672c-1.057,0-1.7.939-1.7,2.259,0,1.291.675,2.171,1.673,2.171a1.6,1.6,0,0,0,1.526-1.7Zm10.478,3.9a3.046,3.046,0,0,1-3.082-3.286,3.114,3.114,0,0,1,3.2-3.374,3.015,3.015,0,0,1,3.082,3.286A3.146,3.146,0,0,1,857.743,130.74Zm.059-5.634c-1.027,0-1.673.968-1.673,2.318,0,1.32.675,2.289,1.673,2.289s1.673-1.027,1.673-2.318C859.445,126.075,858.8,125.106,857.8,125.106Zm10.8,5.487h-1.438v-3.668c0-1.144-.44-1.7-1.292-1.7a1.463,1.463,0,0,0-1.409,1.555v3.814h-1.438v-4.577c0-.557,0-1.174-.059-1.819h1.262l.059,1h.029a2.33,2.33,0,0,1,2.025-1.115c1.35,0,2.231,1.027,2.231,2.7v3.814Zm9.568-5.34h-1.555v3.11c0,.792.264,1.174.822,1.174a3.737,3.737,0,0,0,.646-.059l.029,1.086a2.928,2.928,0,0,1-1.115.147c-1.115,0-1.79-.616-1.79-2.23v-3.228h-.939V124.2h.939v-1.174l1.409-.411V124.2h1.555Zm7.543,5.34H884.3v-3.638c0-1.144-.44-1.731-1.291-1.731a1.409,1.409,0,0,0-1.438,1.526v3.873h-1.409v-9.389h1.409v3.844h.029a2.144,2.144,0,0,1,1.937-1.056c1.35,0,2.172,1.056,2.172,2.729Zm7.719-2.846h-4.285a1.85,1.85,0,0,0,2.025,1.907,5.351,5.351,0,0,0,1.732-.293l.235,1a5.373,5.373,0,0,1-2.142.381,2.983,2.983,0,0,1-3.2-3.228c0-1.966,1.2-3.433,3.023-3.433,1.644,0,2.671,1.2,2.671,3.052A2.406,2.406,0,0,1,893.432,127.747Zm-1.291-1.027c0-1-.5-1.7-1.409-1.7a1.68,1.68,0,0,0-1.556,1.7Z" transform="translate(839.873 5472.767)"/></g><path class="c" d="M111.585,0H3.468L64.339,52.456h47.246c2.422,0,4.325-2.885,4.325-6.557V6.557C115.91,3.016,114.007,0,111.585,0Z" transform="translate(67.464 0)"/></g></svg>