<svg xmlns="http://www.w3.org/2000/svg" width="257.462" height="87.374" viewBox="0 0 257.462 87.374"><defs><style>.a{fill:#b02e46;}.b{fill:#6cc63f;}.c{fill:#a5cd39;}.d{fill:#fff;}</style></defs><g transform="translate(0 0)"><g transform="translate(0 0)"><path class="a" d="M4901.985,6731.216a9.173,9.173,0,0,0,3.952.789,6.216,6.216,0,0,0,5.268-2.811q2.02-2.811,2.021-9.834v-43.381h-7.552v-11.5h33.017v11.5H4931.4v43.381a37.381,37.381,0,0,1-1.318,10.361,18.428,18.428,0,0,1-4.258,7.683,18.675,18.675,0,0,1-7.684,4.743,35.749,35.749,0,0,1-11.5,1.625,11.09,11.09,0,0,1-2.415-.265,10.9,10.9,0,0,1-2.152-.7Z" transform="translate(-4901.985 -6657.953)"/><path class="a" d="M5192.545,6702.312h-24.587v-11.5h3.689v-20.987h-3.689v-11.417h20.373v32.4h4.214Zm-22.128-56.725a8.452,8.452,0,0,1,.615-3.075,9.4,9.4,0,0,1,1.8-2.9,9.107,9.107,0,0,1,2.986-2.152,9.846,9.846,0,0,1,11.2,2.152,9.7,9.7,0,0,1,1.887,2.9,7.972,7.972,0,0,1,.658,3.075,8.791,8.791,0,0,1-2.458,6.277q-2.459,2.592-7.2,2.59a9.007,9.007,0,0,1-3.82-.79,10.261,10.261,0,0,1-2.985-2.064,9.373,9.373,0,0,1-1.976-2.853A7.7,7.7,0,0,1,5170.417,6645.586Z" transform="translate(-5126.862 -6634.408)"/><path class="a" d="M5384.122,6637.557a8.453,8.453,0,0,0-1.888-.615,13.842,13.842,0,0,0-2.942-.263q-2.811,0-2.81,4.653v7.465h7.991v11.415h-7.991V6681.2h5.268V6692.7h-26.167V6681.2h3.512v-20.987h-3.6V6648.8h3.6v-7.465a27.641,27.641,0,0,1,.483-4.61,13.015,13.015,0,0,1,2.283-5.312,14.461,14.461,0,0,1,5.225-4.347q3.425-1.8,9.4-1.8,1.667,0,3.6.176t3.689.484q1.754.31,3.248.7a12.832,12.832,0,0,1,2.372.833Z" transform="translate(-5285.421 -6624.799)"/><path class="a" d="M5603.485,6634.557a8.445,8.445,0,0,0-1.888-.615,13.836,13.836,0,0,0-2.941-.262q-2.811,0-2.811,4.652v7.465h7.991v11.417h-7.991V6678.2h5.269v11.5h-26.168v-11.5h3.512v-20.986h-3.6V6645.8h3.6v-7.465a27.6,27.6,0,0,1,.484-4.61,13.024,13.024,0,0,1,2.282-5.312,14.477,14.477,0,0,1,5.225-4.347q3.425-1.8,9.4-1.8,1.668,0,3.6.177t3.688.482q1.755.308,3.248.7a12.73,12.73,0,0,1,2.372.834Z" transform="translate(-5470.89 -6622.262)"/><path class="a" d="M5809.232,6785.725h-4.039v-11.154H5827.5v10.888h-4.216L5806.6,6826.03q-.965,2.106-2.238,4.3a15.527,15.527,0,0,1-3.38,4,16.8,16.8,0,0,1-5.313,2.941,23.961,23.961,0,0,1-7.948,1.141,15.837,15.837,0,0,1-6.015-1.4,20.209,20.209,0,0,1-4.609-2.985l6.585-10.363a18.751,18.751,0,0,0,2.766,2.107,5.666,5.666,0,0,0,3.03.968,3.868,3.868,0,0,0,3.03-1.494,10.219,10.219,0,0,0,1.888-3.249l1.229-3.687-17.123-32.492h-3.6v-11.24h27.048v11.154h-4.128l5.707,13.7Z" transform="translate(-5640.02 -6751.037)"/><path class="a" d="M6299.439,6812.71V6796.9h11.769a4.007,4.007,0,0,0,1.1,2.9,8.028,8.028,0,0,0,2.591,1.8,12.69,12.69,0,0,0,3.073.923,16.247,16.247,0,0,0,2.547.265,6.229,6.229,0,0,0,2.591-.573,2.364,2.364,0,0,0,1.273-2.414q0-1.229-1.8-1.974a34.157,34.157,0,0,0-4.567-1.45q-2.764-.7-5.927-1.668a25.183,25.183,0,0,1-5.928-2.679,14.5,14.5,0,0,1-4.566-4.479,12.739,12.739,0,0,1-1.8-7.068,10.48,10.48,0,0,1,1.538-5.753,13.116,13.116,0,0,1,3.862-3.951,17.648,17.648,0,0,1,5.006-2.283,18.869,18.869,0,0,1,5.05-.747,16.226,16.226,0,0,1,8.079,2.021,11.772,11.772,0,0,1,5,4.828l.7-5.795h10.8v15.8h-11.416a4.573,4.573,0,0,0-.79-2.589,8.319,8.319,0,0,0-2.063-2.107,10.56,10.56,0,0,0-2.854-1.449,10.2,10.2,0,0,0-3.249-.526,3.942,3.942,0,0,0-2.414.747,2.8,2.8,0,0,0-1.012,2.414,2.667,2.667,0,0,0,1.846,2.371,32.9,32.9,0,0,0,4.609,1.712q2.769.835,6.015,1.844a27.374,27.374,0,0,1,6.017,2.678,15.269,15.269,0,0,1,4.609,4.261,12.406,12.406,0,0,1,.483,12.161,13.327,13.327,0,0,1-3.6,4.171,15.933,15.933,0,0,1-5.226,2.591,21.729,21.729,0,0,1-6.146.878,17.129,17.129,0,0,1-8.3-1.933,13.269,13.269,0,0,1-5.137-4.478l-.79,5.355Z" transform="translate(-6083.514 -6745.27)"/></g><g transform="translate(193.365 2.437)"><path class="b" d="M6154.119,6655.775a26.819,26.819,0,0,1,2.334-4.161c7.179-10.625,5.61-13.466,5.61-13.466s.027.024.071.068c.388,1.4,1.029,3.7,1.514,5.433l-.057-.156s.087.4.246,1.105c.037.177.085.369.126.583s.077.443.117.689.085.508.132.782.069.568.106.869.078.619.105.946.043.665.064,1.011c.012.174.022.349.033.528s0,.355.006.539c0,.364.013.733.01,1.11-.034.755-.043,1.529-.133,2.313-.056.784-.192,1.57-.3,2.358-.16.779-.291,1.559-.5,2.311-.174.76-.423,1.486-.638,2.194-.12.352-.251.691-.372,1.024-.062.167-.123.333-.182.494s-.135.319-.2.475c-.133.313-.261.614-.388.907s-.275.563-.4.831-.252.521-.376.757-.251.449-.365.653-.223.4-.321.573-.216.353-.31.5c-.114.181-.21.335-.292.467-4.881-1.876-7.714-7.042-5.633-11.743" transform="translate(-6153.428 -6638.131)"/><path class="c" d="M6209.842,6665.829a8.6,8.6,0,0,1-5.443,2.109c-.1,0-1.432-.054-1.532-.056-.061,0,1.117.044,1.057.042.043-.1-1.3-.024-1.258-.145.08-.215.114-.169.2-.417s.406-.559.507-.836.413-.74.508-1.043.316-.818.408-1.145.115-.379.207-.729c.046-.176.159-.551.206-.729s.166-.543.2-.729c.079-.371.077-1,.153-1.379.127-.778.283-.818.368-1.64.115-.813.452-1.878.518-2.706.023-.832.246-1.888.217-2.7.005-.815.158-1.309.115-2.08-.034-.385-.055-.878-.094-1.247-.02-.184.022-.444,0-.625s.052-.461.024-.636c-.053-.346-.1-.686-.154-1.012s-.124-.638-.181-.937-.114-.589-.176-.858-.13-.525-.191-.767-.114-.464-.166-.67-.115-.394-.165-.564c-.119-.4-.206-.691-.259-.871l-1.208-5.418c1.05,1.156,15.69,17.612,6.128,27.792" transform="translate(-6195.057 -6638.037)"/><path class="d" d="M6180.935,6679.267s-.013.476-.032,1.309c-.009.416-.036.92-.059,1.5s-.06,1.222-.11,1.928c-.091,1.41-.233,3.048-.456,4.789-.052.436-.117.877-.178,1.325s-.145.9-.212,1.352c-.165.905-.326,1.826-.539,2.738l-.149.685-.169.681c-.111.454-.232.9-.355,1.347-.06.223-.124.443-.194.662l-.195.654c-.127.434-.289.853-.421,1.276s-.306.818-.444,1.223-.318.781-.463,1.163-.327.735-.476,1.09-.318.688-.474,1.013c-.3.655-.631,1.227-.9,1.755-.294.517-.55.965-.759,1.334-.231.361-.4.655-.523.853s-.18.309-.18.309l.267-.248c.169-.162.427-.4.74-.714s.666-.713,1.07-1.178c.378-.48.828-1.016,1.246-1.641a24.263,24.263,0,0,0,1.287-2.058c.2-.375.418-.763.616-1.167s.394-.818.576-1.245c.364-.855.713-1.75,1-2.675.145-.463.3-.928.414-1.4l.188-.71.163-.714c.213-.956.373-1.915.5-2.862s.2-1.88.241-2.783.044-1.774.028-2.6-.076-1.6-.152-2.314a26.835,26.835,0,0,0-.555-3.407c-.089-.407-.184-.722-.244-.938s-.1-.324-.1-.324" transform="translate(-6170.525 -6672.896)"/></g></g></svg>